<?xml version="1.0" standalone="no"?>
<!DOCTYPE svg PUBLIC "-//W3C//DTD SVG 20010904//EN"
 "http://www.w3.org/TR/2001/REC-SVG-20010904/DTD/svg10.dtd">
<svg version="1.0" xmlns="http://www.w3.org/2000/svg"
 width="2048.000000pt" height="2048.000000pt" viewBox="0 0 2048.000000 2048.000000"
 preserveAspectRatio="xMidYMid meet">

<g transform="translate(0.000000,2048.000000) scale(0.100000,-0.100000)"
fill="#000000" stroke="none">
<path d="M9720 19979 c-1348 -72 -2690 -428 -3875 -1029 -775 -393 -1457 -859
-2115 -1444 -315 -280 -753 -739 -1046 -1096 -668 -814 -1211 -1761 -1582
-2760 -331 -892 -511 -1723 -593 -2735 -17 -211 -23 -904 -10 -1150 58 -1126
267 -2096 666 -3100 532 -1340 1345 -2541 2365 -3498 356 -335 543 -492 925
-778 1316 -987 2951 -1638 4605 -1833 394 -47 569 -58 1005 -63 793 -10 1387
43 2106 187 2564 515 4824 2054 6256 4260 1540 2375 1972 5319 1178 8040 -259
889 -662 1763 -1178 2560 -1213 1870 -3042 3280 -5147 3968 -829 271 -1653
424 -2545 472 -214 11 -796 11 -1015 -1z m920 -179 c936 -44 1840 -213 2689
-505 143 -49 359 -132 376 -145 6 -4 31 -15 57 -25 30 -11 48 -24 52 -39 3
-11 9 -103 12 -203 6 -165 9 -182 26 -186 16 -5 18 -17 18 -140 0 -200 -45
-768 -66 -838 -4 -13 -24 -18 -102 -23 -1209 -83 -2221 -302 -3174 -690 l-186
-75 -133 80 c-180 107 -456 242 -670 327 -707 282 -1500 432 -2430 459 l-226
6 -7 266 c-3 146 -11 366 -17 489 -11 211 -11 224 7 236 16 13 17 22 6 147 -7
74 -15 157 -18 185 l-7 52 39 12 c22 7 48 19 59 25 11 7 45 21 75 30 30 10 60
21 65 25 6 4 93 35 195 68 1067 350 2256 513 3360 462z m3565 -856 c33 -14
161 -76 285 -136 1151 -564 2209 -1393 3053 -2391 426 -504 792 -1041 1113
-1632 110 -203 244 -484 244 -512 0 -13 -158 -249 -191 -287 -5 -5 -26 2 -49
18 -38 25 -40 25 -30 6 6 -12 10 -24 7 -26 -2 -2 -86 45 -186 105 -581 351
-1166 589 -1897 771 -38 9 -48 19 -124 133 -826 1213 -1647 2102 -2412 2611
-82 54 -108 76 -108 93 0 12 9 97 20 190 23 200 37 381 46 596 7 149 8 157 26
151 19 -6 19 1 18 183 -1 103 -1 191 -1 194 1 7 77 -21 186 -67z m-6795 -1265
c631 -37 1221 -143 1740 -311 268 -87 435 -155 695 -283 267 -132 433 -228
445 -259 9 -26 125 -725 179 -1086 105 -701 199 -1420 276 -2129 14 -124 25
-226 25 -227 0 -1 -80 -69 -177 -150 -467 -391 -1046 -895 -1408 -1224 -602
-547 -1172 -1119 -1421 -1424 -38 -46 -75 -85 -81 -85 -7 -1 -106 28 -220 63
-1002 309 -2088 582 -2968 746 -121 22 -230 43 -242 45 -18 4 -29 27 -67 143
-273 837 -442 1924 -516 3316 l-10 189 102 136 c671 897 1369 1588 2063 2046
280 185 563 334 861 455 l149 61 205 -6 c113 -3 279 -10 370 -16z m-4300
-2619 c134 -18 438 -74 445 -82 1 -2 10 -136 19 -298 74 -1316 234 -2329 503
-3183 l57 -177 -32 -43 c-17 -23 -82 -115 -144 -205 -609 -878 -999 -1804
-1143 -2712 -40 -251 -20 -221 -160 -247 -386 -70 -852 -81 -1265 -30 -84 11
-95 14 -98 33 -3 18 -14 22 -85 33 -182 28 -170 21 -233 124 -116 186 -138
245 -168 438 -15 96 -33 208 -41 249 -18 94 -41 301 -60 540 -121 1530 126
3055 727 4475 135 319 321 697 437 883 64 104 66 106 109 119 49 14 256 49
352 59 45 5 69 12 78 25 7 10 22 20 35 23 56 12 517 -4 667 -24z m13609 -350
c714 -195 1287 -449 1849 -821 l112 -74 79 -200 c101 -254 145 -372 232 -615
117 -325 145 -415 203 -664 31 -132 74 -301 96 -375 134 -466 240 -977 291
-1411 18 -150 22 -243 23 -490 l1 -305 -57 -150 c-31 -82 -82 -215 -113 -295
-36 -90 -62 -175 -70 -225 -14 -86 -49 -174 -183 -460 -287 -614 -654 -1191
-1001 -1574 -42 -45 -92 -101 -111 -123 l-35 -40 -320 147 c-748 344 -1453
654 -1965 862 l-95 38 -12 165 c-83 1147 -356 2438 -811 3836 l-49 151 70 99
c38 54 225 333 416 619 460 690 794 1216 1142 1798 59 99 100 157 110 157 9 0
98 -22 198 -50z m-5644 -1455 c1098 -238 2237 -606 3335 -1080 295 -127 273
-114 293 -177 483 -1472 763 -2799 842 -3993 l6 -90 -102 -120 c-813 -963
-1721 -1788 -2686 -2442 l-191 -130 -161 29 c-1385 244 -2657 644 -3626 1141
l-160 82 -56 230 c-332 1352 -599 2563 -769 3493 l-41 224 48 56 c430 511
1077 1140 2018 1962 549 480 1002 860 1025 860 9 0 110 -20 225 -45z m8700
-3678 c-3 -23 -10 -114 -15 -202 -16 -271 -75 -681 -152 -1055 -333 -1622
-1080 -3128 -2173 -4380 -125 -143 -313 -340 -325 -340 -3 0 -32 26 -63 58
l-58 59 67 119 c87 156 246 458 273 520 l22 49 -40 -45 c-40 -44 -39 -41 43
130 373 779 601 1472 717 2180 l22 134 103 111 c358 383 659 830 989 1470 90
174 97 185 92 140 -6 -50 -6 -50 43 50 100 201 267 594 375 884 24 64 48 129
54 144 16 41 33 23 26 -26z m-16920 -1684 c126 -296 343 -696 528 -972 448
-670 1056 -1306 1783 -1862 78 -60 144 -116 148 -125 3 -8 6 -35 6 -59 0 -64
27 -317 56 -515 100 -702 310 -1366 614 -1948 47 -88 66 -134 57 -137 -19 -6
-195 -33 -264 -41 -49 -5 -68 -3 -87 10 -21 13 -54 16 -183 16 -182 0 -339 12
-505 40 l-118 20 -157 106 c-263 178 -513 374 -828 650 -199 173 -620 591
-791 784 -936 1056 -1597 2222 -1990 3509 -33 110 -35 123 -45 358 -7 134 -9
246 -7 248 2 3 47 -2 99 -10 170 -26 159 -26 159 -3 0 19 4 20 53 14 237 -28
664 -36 897 -16 129 11 375 44 439 59 77 19 73 23 136 -126z m6090 -1695 c788
-373 1682 -672 2685 -896 233 -53 607 -127 790 -157 58 -10 110 -23 116 -29
17 -17 209 -679 333 -1151 83 -316 187 -744 265 -1090 36 -159 68 -298 70
-308 6 -24 -166 -211 -314 -342 -664 -589 -1503 -955 -2640 -1150 -146 -26
-168 -27 -375 -21 -226 6 -353 20 -687 76 -942 159 -1856 482 -2653 938 -200
114 -349 209 -361 229 -7 11 -41 74 -77 141 -300 554 -515 1225 -616 1917 -25
169 -63 539 -59 566 2 16 58 42 273 128 885 355 1540 649 2360 1061 l530 267
95 -49 c52 -27 172 -85 265 -130z m7974 -2684 l50 -57 -51 -58 c-57 -64 -259
-251 -443 -410 -1110 -959 -2474 -1666 -3900 -2022 -759 -190 -1515 -287
-2242 -287 l-252 0 -6 48 c-4 26 -10 72 -15 102 -4 30 -5 58 -2 61 4 3 59 13
122 23 150 23 530 99 645 130 l90 23 -85 -4 -85 -4 135 36 c661 176 1163 393
1625 701 218 145 392 290 601 499 l191 192 141 7 c859 40 1772 237 2404 517
148 65 184 80 167 67 -87 -71 -85 -69 -58 -59 46 17 270 131 379 194 134 76
334 209 442 292 45 35 86 65 90 65 3 0 29 -25 57 -56z"/>
</g>
</svg>
